<svg width="27" height="22" viewBox="0 0 27 22" fill="none" xmlns="http://www.w3.org/2000/svg">
<path d="M13.9023 9.26953V12.8105C13.9023 14.2689 13.7383 15.5312 13.4102 16.5977C13.0911 17.6641 12.6263 18.5436 12.0156 19.2363C11.4141 19.929 10.694 20.444 9.85547 20.7812C9.02604 21.1094 8.10547 21.2734 7.09375 21.2734C6.28255 21.2734 5.52604 21.1686 4.82422 20.959C4.1224 20.7493 3.48893 20.4258 2.92383 19.9883C2.36784 19.5417 1.88932 18.9857 1.48828 18.3203C1.08724 17.6549 0.777344 16.862 0.558594 15.9414C0.348958 15.0208 0.244141 13.9772 0.244141 12.8105V9.26953C0.244141 7.79297 0.403646 6.52604 0.722656 5.46875C1.05078 4.41146 1.52018 3.53646 2.13086 2.84375C2.74154 2.15104 3.46159 1.64062 4.29102 1.3125C5.12956 0.984375 6.05469 0.820312 7.06641 0.820312C7.8776 0.820312 8.62956 0.92513 9.32227 1.13477C10.0241 1.3444 10.6576 1.66797 11.2227 2.10547C11.7878 2.54297 12.2663 3.0944 12.6582 3.75977C13.0592 4.42513 13.3646 5.2181 13.5742 6.13867C13.793 7.05013 13.9023 8.09375 13.9023 9.26953ZM9.63672 13.3438V8.70898C9.63672 8.02539 9.5957 7.43294 9.51367 6.93164C9.44076 6.42122 9.33138 5.98828 9.18555 5.63281C9.04883 5.27734 8.87565 4.99023 8.66602 4.77148C8.45638 4.55273 8.21484 4.39323 7.94141 4.29297C7.67708 4.18359 7.38542 4.12891 7.06641 4.12891C6.66536 4.12891 6.30534 4.21094 5.98633 4.375C5.66732 4.53906 5.39844 4.79883 5.17969 5.1543C4.96094 5.50065 4.79232 5.97005 4.67383 6.5625C4.56445 7.14583 4.50977 7.86133 4.50977 8.70898V13.3438C4.50977 14.0273 4.54622 14.6243 4.61914 15.1348C4.70117 15.6452 4.81055 16.0827 4.94727 16.4473C5.0931 16.8027 5.27083 17.0944 5.48047 17.3223C5.6901 17.541 5.93164 17.7005 6.20508 17.8008C6.47852 17.901 6.77474 17.9512 7.09375 17.9512C7.49479 17.9512 7.85026 17.8737 8.16016 17.7188C8.47005 17.5547 8.73438 17.2949 8.95312 16.9395C9.18099 16.5749 9.34961 16.0964 9.45898 15.5039C9.57747 14.9115 9.63672 14.1914 9.63672 13.3438ZM26.3574 1.08008V21H22.0781V5.94727L17.457 7.35547V4.04688L25.9336 1.08008H26.3574Z" fill="white"/>
</svg>
