<svg width="31" height="22" viewBox="0 0 31 22" fill="none" xmlns="http://www.w3.org/2000/svg">
<path d="M13.9023 9.26953V12.8105C13.9023 14.2689 13.7383 15.5312 13.4102 16.5977C13.0911 17.6641 12.6263 18.5436 12.0156 19.2363C11.4141 19.929 10.694 20.444 9.85547 20.7812C9.02604 21.1094 8.10547 21.2734 7.09375 21.2734C6.28255 21.2734 5.52604 21.1686 4.82422 20.959C4.1224 20.7493 3.48893 20.4258 2.92383 19.9883C2.36784 19.5417 1.88932 18.9857 1.48828 18.3203C1.08724 17.6549 0.777344 16.862 0.558594 15.9414C0.348958 15.0208 0.244141 13.9772 0.244141 12.8105V9.26953C0.244141 7.79297 0.403646 6.52604 0.722656 5.46875C1.05078 4.41146 1.52018 3.53646 2.13086 2.84375C2.74154 2.15104 3.46159 1.64062 4.29102 1.3125C5.12956 0.984375 6.05469 0.820312 7.06641 0.820312C7.8776 0.820312 8.62956 0.92513 9.32227 1.13477C10.0241 1.3444 10.6576 1.66797 11.2227 2.10547C11.7878 2.54297 12.2663 3.0944 12.6582 3.75977C13.0592 4.42513 13.3646 5.2181 13.5742 6.13867C13.793 7.05013 13.9023 8.09375 13.9023 9.26953ZM9.63672 13.3438V8.70898C9.63672 8.02539 9.5957 7.43294 9.51367 6.93164C9.44076 6.42122 9.33138 5.98828 9.18555 5.63281C9.04883 5.27734 8.87565 4.99023 8.66602 4.77148C8.45638 4.55273 8.21484 4.39323 7.94141 4.29297C7.67708 4.18359 7.38542 4.12891 7.06641 4.12891C6.66536 4.12891 6.30534 4.21094 5.98633 4.375C5.66732 4.53906 5.39844 4.79883 5.17969 5.1543C4.96094 5.50065 4.79232 5.97005 4.67383 6.5625C4.56445 7.14583 4.50977 7.86133 4.50977 8.70898V13.3438C4.50977 14.0273 4.54622 14.6243 4.61914 15.1348C4.70117 15.6452 4.81055 16.0827 4.94727 16.4473C5.0931 16.8027 5.27083 17.0944 5.48047 17.3223C5.6901 17.541 5.93164 17.7005 6.20508 17.8008C6.47852 17.901 6.77474 17.9512 7.09375 17.9512C7.49479 17.9512 7.85026 17.8737 8.16016 17.7188C8.47005 17.5547 8.73438 17.2949 8.95312 16.9395C9.18099 16.5749 9.34961 16.0964 9.45898 15.5039C9.57747 14.9115 9.63672 14.1914 9.63672 13.3438ZM20.5742 9.22852H22.748C23.3678 9.22852 23.8783 9.11914 24.2793 8.90039C24.6895 8.68164 24.9902 8.37174 25.1816 7.9707C25.3822 7.56966 25.4824 7.10026 25.4824 6.5625C25.4824 6.09766 25.3913 5.68294 25.209 5.31836C25.0267 4.95378 24.7487 4.66667 24.375 4.45703C24.0104 4.23828 23.5365 4.12891 22.9531 4.12891C22.5339 4.12891 22.1328 4.21549 21.75 4.38867C21.3763 4.55273 21.071 4.79427 20.834 5.11328C20.597 5.42318 20.4785 5.79688 20.4785 6.23438H16.1992C16.1992 5.1224 16.5 4.16081 17.1016 3.34961C17.7122 2.53841 18.5189 1.91406 19.5215 1.47656C20.5332 1.02995 21.6361 0.806641 22.8301 0.806641C24.2064 0.806641 25.4141 1.02539 26.4531 1.46289C27.5013 1.89128 28.3125 2.5293 28.8867 3.37695C29.4701 4.21549 29.7617 5.25456 29.7617 6.49414C29.7617 7.14128 29.6068 7.76562 29.2969 8.36719C28.9961 8.95964 28.5632 9.48828 27.998 9.95312C27.4421 10.4089 26.7767 10.7734 26.002 11.0469C25.2363 11.3112 24.3841 11.4434 23.4453 11.4434H20.5742V9.22852ZM20.5742 12.4414V10.2676H23.4453C24.4844 10.2676 25.4141 10.3861 26.2344 10.623C27.0547 10.86 27.752 11.2018 28.3262 11.6484C28.9004 12.0951 29.3379 12.6374 29.6387 13.2754C29.9395 13.9134 30.0898 14.6243 30.0898 15.4082C30.0898 16.3379 29.9076 17.1673 29.543 17.8965C29.1784 18.6257 28.668 19.2409 28.0117 19.7422C27.3555 20.2435 26.5853 20.6263 25.7012 20.8906C24.8171 21.1458 23.86 21.2734 22.8301 21.2734C22.0007 21.2734 21.1758 21.1595 20.3555 20.9316C19.5352 20.7038 18.7923 20.3574 18.127 19.8926C17.4616 19.4186 16.9284 18.8216 16.5273 18.1016C16.1263 17.3724 15.9258 16.5065 15.9258 15.5039H20.2051C20.2051 15.9688 20.3236 16.388 20.5605 16.7617C20.8066 17.1263 21.1393 17.418 21.5586 17.6367C21.987 17.8464 22.4518 17.9512 22.9531 17.9512C23.5547 17.9512 24.0651 17.8418 24.4844 17.623C24.9128 17.3952 25.2363 17.0853 25.4551 16.6934C25.6829 16.3014 25.7969 15.8503 25.7969 15.3398C25.7969 14.6471 25.6738 14.0911 25.4277 13.6719C25.1908 13.2435 24.8444 12.9336 24.3887 12.7422C23.9329 12.5417 23.3861 12.4414 22.748 12.4414H20.5742Z" fill="white"/>
</svg>
