<svg width="10" height="16" viewBox="0 0 10 16" fill="none" xmlns="http://www.w3.org/2000/svg">
<path d="M2.39575 0.416829L9.41659 7.41683C9.49992 7.50016 9.55881 7.59044 9.59325 7.68766C9.62825 7.78488 9.64575 7.88905 9.64575 8.00016C9.64575 8.11127 9.62825 8.21544 9.59325 8.31266C9.55881 8.40988 9.49992 8.50016 9.41659 8.5835L2.39575 15.6043C2.20131 15.7988 1.95825 15.896 1.66659 15.896C1.37492 15.896 1.12492 15.7918 0.916586 15.5835C0.708253 15.3752 0.604086 15.1321 0.604086 14.8543C0.604086 14.5766 0.708253 14.3335 0.916586 14.1252L7.04159 8.00016L0.916586 1.87516C0.722141 1.68072 0.624919 1.44127 0.624919 1.15683C0.624919 0.87183 0.729086 0.625162 0.937419 0.416829C1.14575 0.208496 1.38881 0.104329 1.66659 0.104329C1.94436 0.104329 2.18742 0.208496 2.39575 0.416829Z" fill="#6A9BA8"/>
</svg>
