<svg width="54" height="40" viewBox="0 0 54 40" fill="none" xmlns="http://www.w3.org/2000/svg">
<path d="M54 38.125V14.375C54 14.2092 53.9163 14.0503 53.7674 13.9331C53.6185 13.8158 53.4165 13.75 53.2059 13.75C52.9953 13.75 52.7933 13.8158 52.6444 13.9331C52.4954 14.0503 52.4118 14.2092 52.4118 14.375V38.125C52.4118 38.2908 52.3281 38.4497 52.1792 38.5669C52.0302 38.6842 51.8283 38.75 51.6176 38.75H2.38235C2.17174 38.75 1.96975 38.6842 1.82083 38.5669C1.6719 38.4497 1.58824 38.2908 1.58824 38.125V14.375C1.58824 14.2092 1.50457 14.0503 1.35564 13.9331C1.20672 13.8158 1.00473 13.75 0.794118 13.75C0.583505 13.75 0.381518 13.8158 0.232592 13.9331C0.0836657 14.0503 0 14.2092 0 14.375L0 38.125C0 39.1588 1.06888 40 2.38235 40H51.6176C52.9311 40 54 39.1588 54 38.125Z" fill="#37425F"/>
<path d="M7.14706 28.75C6.93645 28.75 6.73446 28.8158 6.58553 28.9331C6.43661 29.0503 6.35294 29.2092 6.35294 29.375C6.35294 29.5408 6.43661 29.6997 6.58553 29.8169C6.73446 29.9342 6.93645 30 7.14706 30H9.52941V34.375C9.52941 34.5408 9.61308 34.6997 9.762 34.8169C9.91093 34.9342 10.1129 35 10.3235 35C10.5341 35 10.7361 34.9342 10.8851 34.8169C11.034 34.6997 11.1176 34.5408 11.1176 34.375V30H20.6471V34.375C20.6471 34.5408 20.7307 34.6997 20.8797 34.8169C21.0286 34.9342 21.2306 35 21.4412 35C21.6518 35 21.8538 34.9342 22.0027 34.8169C22.1516 34.6997 22.2353 34.5408 22.2353 34.375V30H31.7647V34.375C31.7647 34.5408 31.8484 34.6997 31.9973 34.8169C32.1462 34.9342 32.3482 35 32.5588 35C32.7694 35 32.9714 34.9342 33.1203 34.8169C33.2693 34.6997 33.3529 34.5408 33.3529 34.375V30H42.8824V34.375C42.8824 34.5408 42.966 34.6997 43.1149 34.8169C43.2639 34.9342 43.4659 35 43.6765 35C43.8871 35 44.0891 34.9342 44.238 34.8169C44.3869 34.6997 44.4706 34.5408 44.4706 34.375V30H46.8529C47.0636 30 47.2655 29.9342 47.4145 29.8169C47.5634 29.6997 47.6471 29.5408 47.6471 29.375C47.6471 29.2092 47.5634 29.0503 47.4145 28.9331C47.2655 28.8158 47.0636 28.75 46.8529 28.75H44.4706V22.5H46.8529C47.0636 22.5 47.2655 22.4342 47.4145 22.3169C47.5634 22.1997 47.6471 22.0408 47.6471 21.875C47.6471 21.7092 47.5634 21.5503 47.4145 21.4331C47.2655 21.3158 47.0636 21.25 46.8529 21.25H44.4706V15.625C44.4706 15.4592 44.3869 15.3003 44.238 15.1831C44.0891 15.0658 43.8871 15 43.6765 15C43.4659 15 43.2639 15.0658 43.1149 15.1831C42.966 15.3003 42.8824 15.4592 42.8824 15.625V21.25H33.3529V15.625C33.3529 15.4592 33.2693 15.3003 33.1203 15.1831C32.9714 15.0658 32.7694 15 32.5588 15C32.3482 15 32.1462 15.0658 31.9973 15.1831C31.8484 15.3003 31.7647 15.4592 31.7647 15.625V21.25H22.2353V15.625C22.2353 15.4592 22.1516 15.3003 22.0027 15.1831C21.8538 15.0658 21.6518 15 21.4412 15C21.2306 15 21.0286 15.0658 20.8797 15.1831C20.7307 15.3003 20.6471 15.4592 20.6471 15.625V21.25H11.1176V15.625C11.1176 15.4592 11.034 15.3003 10.8851 15.1831C10.7361 15.0658 10.5341 15 10.3235 15C10.1129 15 9.91093 15.0658 9.762 15.1831C9.61308 15.3003 9.52941 15.4592 9.52941 15.625V21.25H7.14706C6.93645 21.25 6.73446 21.3158 6.58553 21.4331C6.43661 21.5503 6.35294 21.7092 6.35294 21.875C6.35294 22.0408 6.43661 22.1997 6.58553 22.3169C6.73446 22.4342 6.93645 22.5 7.14706 22.5H9.52941V28.75H7.14706ZM42.8824 22.5V28.75H33.3529V22.5H42.8824ZM31.7647 22.5V28.75H22.2353V22.5H31.7647ZM11.1176 22.5H20.6471V28.75H11.1176V22.5ZM45.2647 3.75H52.0147C52.1529 3.75 52.4118 3.75 52.4118 4.375V10H1.58824V4.375C1.58824 4.20924 1.6719 4.05027 1.82083 3.93306C1.96975 3.81585 2.17174 3.75 2.38235 3.75H8.73529C8.94591 3.75 9.14789 3.68415 9.29682 3.56694C9.44575 3.44973 9.52941 3.29076 9.52941 3.125C9.52941 2.95924 9.44575 2.80027 9.29682 2.68306C9.14789 2.56585 8.94591 2.5 8.73529 2.5H2.38235C1.06888 2.5 0 3.34125 0 4.375V10.625C0 10.7908 0.0836657 10.9497 0.232592 11.0669C0.381518 11.1842 0.583505 11.25 0.794118 11.25H53.2059C53.4165 11.25 53.6185 11.1842 53.7674 11.0669C53.9163 10.9497 54 10.7908 54 10.625V4.375C54 2.9925 52.974 2.5 52.0147 2.5H45.2647C45.0541 2.5 44.8521 2.56585 44.7032 2.68306C44.5543 2.80027 44.4706 2.95924 44.4706 3.125C44.4706 3.29076 44.5543 3.44973 44.7032 3.56694C44.8521 3.68415 45.0541 3.75 45.2647 3.75Z" fill="#37425F"/>
<path d="M35.7355 3.75C35.9461 3.75 36.1481 3.68415 36.297 3.56694C36.4459 3.44973 36.5296 3.29076 36.5296 3.125C36.5296 2.95924 36.4459 2.80027 36.297 2.68306C36.1481 2.56585 35.9461 2.5 35.7355 2.5H18.2649C18.0543 2.5 17.8523 2.56585 17.7034 2.68306C17.5544 2.80027 17.4708 2.95924 17.4708 3.125C17.4708 3.29076 17.5544 3.44973 17.7034 3.56694C17.8523 3.68415 18.0543 3.75 18.2649 3.75H35.7355ZM14.2943 5.625V0.625C14.2943 0.45924 14.2106 0.300269 14.0617 0.183058C13.9128 0.065848 13.7108 0 13.5002 0C13.2896 0 13.0876 0.065848 12.9386 0.183058C12.7897 0.300269 12.7061 0.45924 12.7061 0.625V5.625C12.7061 5.79076 12.7897 5.94973 12.9386 6.06694C13.0876 6.18415 13.2896 6.25 13.5002 6.25C13.7108 6.25 13.9128 6.18415 14.0617 6.06694C14.2106 5.94973 14.2943 5.79076 14.2943 5.625ZM40.5002 6.25C40.7108 6.25 40.9128 6.18415 41.0617 6.06694C41.2106 5.94973 41.2943 5.79076 41.2943 5.625V0.625C41.2943 0.45924 41.2106 0.300269 41.0617 0.183058C40.9128 0.065848 40.7108 0 40.5002 0C40.2896 0 40.0876 0.065848 39.9386 0.183058C39.7897 0.300269 39.7061 0.45924 39.7061 0.625V5.625C39.7061 5.79076 39.7897 5.94973 39.9386 6.06694C40.0876 6.18415 40.2896 6.25 40.5002 6.25Z" fill="#37425F"/>
</svg>
