<svg width="21" height="15" viewBox="0 0 21 15" fill="none" xmlns="http://www.w3.org/2000/svg">
<path d="M19.8438 0.4375H1.15625C0.758691 0.4375 0.4375 0.744727 0.4375 1.125V14.875C0.4375 15.2553 0.758691 15.5625 1.15625 15.5625H19.8438C20.2413 15.5625 20.5625 15.2553 20.5625 14.875V1.125C20.5625 0.744727 20.2413 0.4375 19.8438 0.4375ZM18.9453 2.81797V14.0156H2.05469V2.81797L1.43477 2.35605L2.31748 1.27109L3.27881 1.98652H17.7234L18.6848 1.27109L19.5675 2.35605L18.9453 2.81797V2.81797ZM17.7234 1.98438L10.5 7.35547L3.27656 1.98438L2.31523 1.26895L1.43252 2.35391L2.05244 2.81582L9.7251 8.52207C9.94575 8.68604 10.2172 8.77505 10.4966 8.77505C10.776 8.77505 11.0475 8.68604 11.2682 8.52207L18.9453 2.81797L19.5652 2.35605L18.6825 1.27109L17.7234 1.98438Z" fill="#37425F"/>
</svg>
