<svg width="10" height="11" viewBox="0 0 10 11" fill="none" xmlns="http://www.w3.org/2000/svg">
<path d="M4.58329 8.75001C5.39682 8.74981 6.18691 8.42795 6.82775 7.83568L8.84258 10.2168L9.49067 9.45093L7.47583 7.06976C7.97725 6.31233 8.24976 5.37837 8.24996 4.41668C8.24996 2.02739 6.605 0.0833435 4.58329 0.0833435C2.56158 0.0833435 0.916626 2.02739 0.916626 4.41668C0.916626 6.80597 2.56158 8.75001 4.58329 8.75001ZM4.58329 1.16668C6.09992 1.16668 7.33329 2.6243 7.33329 4.41668C7.33329 6.20905 6.09992 7.66668 4.58329 7.66668C3.06667 7.66668 1.83329 6.20905 1.83329 4.41668C1.83329 2.6243 3.06667 1.16668 4.58329 1.16668Z" fill="black"/>
</svg>
