<svg width="18" height="16" viewBox="0 0 18 16" fill="none" xmlns="http://www.w3.org/2000/svg">
<path d="M4.33944 1.57735C4.26934 1.48717 4.18085 1.41294 4.07986 1.35959C3.97886 1.30624 3.86767 1.27499 3.75367 1.26791C3.63967 1.26084 3.52547 1.2781 3.41865 1.31855C3.31183 1.359 3.21484 1.42172 3.13413 1.50254L1.90625 2.7316C1.33269 3.30635 1.12132 4.11979 1.37188 4.83348C2.41182 7.78749 4.10348 10.4695 6.32138 12.6805C8.53242 14.8983 11.2144 16.59 14.1684 17.63C14.8821 17.8805 15.6955 17.6692 16.2703 17.0956L17.4981 15.8677C17.5789 15.787 17.6417 15.69 17.6821 15.5832C17.7226 15.4764 17.7398 15.3622 17.7328 15.2482C17.7257 15.1342 17.6944 15.023 17.6411 14.922C17.5877 14.821 17.5135 14.7325 17.4233 14.6624L14.6838 12.532C14.5874 12.4573 14.4754 12.4055 14.356 12.3804C14.2367 12.3553 14.1133 12.3576 13.995 12.3872L11.3944 13.0367C11.0472 13.1235 10.6836 13.1189 10.3387 13.0234C9.99392 12.9278 9.67971 12.7447 9.42669 12.4917L6.51019 9.57398C6.25698 9.32108 6.07358 9.00692 5.97785 8.66209C5.88212 8.31726 5.87733 7.95352 5.96394 7.60629L6.61469 5.00566C6.64427 4.88738 6.6466 4.76393 6.6215 4.64462C6.5964 4.52531 6.54454 4.41325 6.46982 4.31691L4.33944 1.57735ZM2.23757 0.607163C2.44537 0.39929 2.69502 0.238005 2.96994 0.134017C3.24486 0.0300284 3.53876 -0.0142835 3.83212 0.00402329C4.12548 0.0223301 4.41158 0.102837 4.67144 0.240198C4.9313 0.377558 5.15897 0.56863 5.33932 0.800725L7.46969 3.5391C7.86038 4.04141 7.99813 4.69573 7.84375 5.31323L7.19419 7.91385C7.16061 8.04855 7.16242 8.18964 7.19946 8.32343C7.23649 8.45722 7.3075 8.57916 7.40557 8.67741L10.3233 11.5951C10.4216 11.6934 10.5438 11.7645 10.6778 11.8015C10.8118 11.8386 10.9531 11.8403 11.088 11.8065L13.6874 11.1569C13.9922 11.0807 14.3102 11.0748 14.6176 11.1396C14.9249 11.2044 15.2135 11.3382 15.4616 11.531L18.1999 13.6614C19.1844 14.4273 19.2746 15.882 18.3935 16.7619L17.1656 17.9898C16.2869 18.8685 14.9735 19.2545 13.7492 18.8234C10.6156 17.7209 7.77045 15.9269 5.42482 13.5747C3.07272 11.2294 1.27879 8.38465 0.176065 5.25148C-0.25381 4.02835 0.132128 2.71379 1.01088 1.83504L2.23875 0.607163H2.23757Z" fill="#37425F"/>
</svg>
