<svg width="10" height="10" viewBox="0 0 10 10" fill="none" xmlns="http://www.w3.org/2000/svg">
<path d="M8.86424 0.793882C7.54596 1.93482 6.43065 3.02091 5.40955 4.43794C4.95924 5.06294 4.45846 5.79857 4.13112 6.4931C3.94424 6.86138 3.60737 7.43685 3.49252 7.99013C2.8644 7.40576 2.18971 6.74248 1.4994 6.22294C1.00737 5.85279 -0.409822 6.60748 0.167053 7.04154C1.20096 7.81919 2.0608 8.78779 3.06643 9.60013C3.48705 9.93951 4.41924 9.20248 4.6383 8.89326C5.35737 7.87451 5.45565 6.62919 5.97971 5.51794C6.77987 3.81841 8.19893 2.42232 9.60002 1.20998C10.5283 0.344195 9.56955 0.184507 8.86565 0.793882" fill="#FFDD9F"/>
</svg>
